<svg width="300" height="80" viewBox="0 0 300 80" fill="none" xmlns="http://www.w3.org/2000/svg">
<g clip-path="url(#clip0_1_8)">
<path d="M296.765 7.31771C295.889 5.34295 292.671 3.31612 287.701 1.61646C285.408 0.831782 282.646 0.099229 279.497 -0.555151C277.469 -0.95473 277.054 -1.35141 276.685 -1.69887C276.612 -1.76836 276.374 -1.97685 276.374 -1.97685C276.355 -1.99132 276.324 -2 276.29 -2L272.065 -1.89576C272.038 -1.89576 271.996 -1.88708 271.965 -1.84945C271.934 -1.81181 271.961 -1.76546 271.961 -1.76546L272.23 -1.31377C273.628 1.06053 276.155 1.62516 278.187 2.07685L278.398 2.12318C279.9 2.46194 282.489 3.15396 284.835 3.99654C288.204 5.20393 290.247 6.18265 291.415 6.8573C292.275 7.45084 291.019 7.27421 291.019 7.27421C290.843 7.23369 290.651 7.18735 290.443 7.13526C281.459 4.8797 276.309 3.75045 273.09 3.83152C271.611 3.86916 270.548 4.17029 269.833 4.75518C269.169 5.30243 268.558 6.27817 269.438 7.82148C269.979 8.76543 271.623 9.72386 276.578 12.4398L276.774 12.5469C277.722 13.0681 278.89 13.6617 280.123 14.2929C282.051 15.2774 284.209 16.3777 285.919 17.3998L285.942 17.4171C291.242 20.4429 289.84 22.1079 287.048 25.426C286.825 25.6895 286.595 25.9617 286.368 26.2397C284.72 28.2433 281.997 31.9148 281.97 31.9525L281.901 32.0451L281.851 32.1436C279.504 36.7648 280.426 42.1301 285.147 51.2827C290.762 62.1756 289.287 64.8713 286.952 69.1741V69.1829C286.441 70.1151 285.915 71.0791 285.5 72.0782C285.262 72.5504 282.831 76.8385 283.61 80.5937C284.436 84.5693 283.733 92.5896 283.522 94L287.447 93.9046C287.731 91.8975 288.319 84.2656 287.463 80.1391C286.814 77.0117 289.133 73.1349 289.156 73.0976L289.202 72.9962C289.571 72.0985 290.051 71.215 290.558 70.2855C292.94 65.9047 294.96 62.2016 288.78 50.2172C284.482 41.8782 283.545 37.1325 285.442 33.2931C285.896 32.6821 288.238 29.5405 289.679 27.7917C289.894 27.5282 290.117 27.2676 290.328 27.0128L290.336 27.0041C293.063 23.767 296.458 19.7364 288.292 15.0776L288.269 15.0631C286.257 13.7978 283.733 12.4195 280.879 10.8618C280.288 10.5404 279.685 10.2074 279.067 9.86862C277.638 9.08391 275.848 8.10235 274.615 7.36689C273.77 6.82544 274.845 6.94707 274.934 6.95864C277.357 7.33218 281.982 8.37449 288.761 10.077L289.107 10.164C290.862 10.6041 292.275 10.8038 293.42 10.7778C294.564 10.7488 295.44 10.494 296.097 9.99891C296.615 9.60804 297.395 8.73938 296.765 7.32637V7.31771Z" fill="url(#paint0_linear_1_8)"/>
<path fill-rule="evenodd" clip-rule="evenodd" d="M47.5315 31.7223C47.0292 30.5952 46.1662 30 45.0332 30H44.8583C43.7228 30 42.8252 30.6107 42.3311 31.7232L33.4322 52H36.5411C37.4661 52 38.2263 51.4749 38.5763 50.5939L44.8877 35.849L51.1416 50.4763C51.5502 51.4597 52.3039 52 53.2632 52H56.4011L47.5315 31.7223ZM77.9407 31.2587C78.3132 30.6488 78.8218 30.2803 79.4555 30.1633H82.5069V51.8775L79.7561 51.8641C78.8018 51.6085 78.111 50.7109 78.111 49.7287V38.6402L73.859 45.1271C73.3729 45.8866 72.7649 46.258 72.0053 46.258C71.2644 46.258 70.6678 45.8866 70.1795 45.1233L65.9586 38.6966V49.7596C65.9586 50.7545 65.3229 51.6007 64.3762 51.8636L61.6218 51.8775V30.1673H64.6723C65.3045 30.2891 65.8328 30.6722 66.2176 31.2908L72.0647 40.5855L77.9407 31.2587ZM156.438 37.3981V37.3394C156.438 34.7042 154.039 34.3118 152.609 34.3118H147.79V40.456H152.639C154.982 40.456 156.438 39.2843 156.438 37.3981ZM160.893 37.1322V37.1917C160.893 40.2671 159.326 42.5268 156.465 43.6027L161.569 51.7319H157.24C156.388 51.7319 155.708 51.3675 155.165 50.6181L155.141 50.5793L151.677 44.5035H147.79V49.6632C147.79 50.6865 147.11 51.569 146.138 51.8132H143.393V30.1753H152.902C155.499 30.1753 157.635 30.9325 159.079 32.3657C160.268 33.6049 160.893 35.251 160.893 37.1322ZM108.613 30.1674C107.98 30.283 107.471 30.648 107.099 31.2587L101.222 40.5854L95.3753 31.2905C94.9905 30.6723 94.4616 30.289 93.8304 30.1674H90.779V51.8776L93.533 51.8637C94.4806 51.6008 95.1166 50.7546 95.1166 49.7596V38.6965L99.3368 45.1234C99.826 45.8867 100.423 46.2578 101.163 46.2578C101.924 46.2578 102.53 45.8867 103.017 45.127L107.268 38.6401V49.7288C107.268 50.711 107.959 51.6084 108.913 51.8641L111.664 51.8776V30.1674H108.613ZM123.883 47.7012H133.723C134.777 47.7012 135.675 48.5727 135.728 49.6434V49.6626V51.7789H119.487V30.2207H135.582V32.3547C135.533 33.4442 134.652 34.2986 133.577 34.2986H123.883V38.8724H132.264C133.372 38.8724 134.272 39.7998 134.272 40.9404C134.272 42.0486 133.372 42.9495 132.264 42.9495H123.883V47.7012ZM23.337 32.2939C23.337 31.2739 24.0165 30.3926 24.9885 30.1486H27.7325V51.8603H24.9885C24.0165 51.6156 23.337 50.7338 23.337 49.714V43.0425H14.396V49.714C14.396 50.7338 13.7166 51.6156 12.745 51.8603H10V30.1486H12.745C13.7166 30.3926 14.396 31.2739 14.396 32.2939V38.8465H23.337V32.2939ZM252.74 47.6425H249.117V34.3584H252.74C254.712 34.3584 256.397 35.0096 257.61 36.2415C258.782 37.4323 259.429 39.1216 259.429 40.9995V41.0601C259.429 44.9968 256.741 47.6425 252.74 47.6425ZM252.74 30.2209H244.72V49.5331C244.72 50.7922 245.692 51.7789 246.932 51.7789H252.74C255.915 51.7789 258.797 50.6737 260.856 48.6689C262.883 46.6926 264 43.969 264 40.9996V40.9405C264 34.7307 259.264 30.2209 252.74 30.2209ZM199.415 47.7012H209.256C210.309 47.7012 211.208 48.5727 211.259 49.6434V49.6626V51.7789H195.019V30.2207H211.113V32.3547C211.065 33.4442 210.184 34.2986 209.11 34.2986H199.415V38.8724H207.796C208.903 38.8724 209.804 39.7998 209.804 40.9404C209.804 42.0486 208.903 42.9495 207.796 42.9495H199.415V47.7012ZM230.307 31.7223C229.805 30.5952 228.942 30 227.809 30H227.634C226.498 30 225.601 30.6107 225.106 31.7232L216.208 52H219.317C220.242 52 221.003 51.4749 221.352 50.5939L227.664 35.849L233.918 50.4763C234.239 51.2501 234.775 51.7503 235.456 51.9284L235.421 52H239.177L230.307 31.7223ZM182.479 32.2939C182.479 31.2739 183.159 30.3926 184.131 30.1486H186.875V51.8603H184.131C183.159 51.6156 182.479 50.7338 182.479 49.714V43.0425H173.538V49.714C173.538 50.7338 172.859 51.6156 171.887 51.8603H169.144V30.1486H171.887C172.859 30.3926 173.538 31.2739 173.538 32.2939V38.8465H182.479V32.2939Z" fill="white"/>
</g>
<defs>
<linearGradient id="paint0_linear_1_8" x1="282.996" y1="93.9973" x2="282.996" y2="-2.00289" gradientUnits="userSpaceOnUse">
<stop stop-color="#F7941D"/>
<stop offset="0.24" stop-color="#F7941D"/>
<stop offset="0.29" stop-color="#F19121"/>
<stop offset="0.34" stop-color="#E2882E"/>
<stop offset="0.4" stop-color="#C97B44"/>
<stop offset="0.46" stop-color="#A66862"/>
<stop offset="0.52" stop-color="#795088"/>
<stop offset="0.55" stop-color="#64459B"/>
<stop offset="0.57" stop-color="#684B9E"/>
<stop offset="0.6" stop-color="#735CA6"/>
<stop offset="0.63" stop-color="#8779B4"/>
<stop offset="0.67" stop-color="#A2A0C8"/>
<stop offset="0.7" stop-color="#C4D3E1"/>
<stop offset="0.71" stop-color="#C6D6E3"/>
<stop offset="0.87" stop-color="#C6D6E3"/>
<stop offset="0.88" stop-color="#A2AEB9"/>
<stop offset="0.89" stop-color="#818890"/>
<stop offset="0.91" stop-color="#63676D"/>
<stop offset="0.92" stop-color="#4C4D51"/>
<stop offset="0.94" stop-color="#39383B"/>
<stop offset="0.95" stop-color="#2D2A2B"/>
<stop offset="0.97" stop-color="#252122"/>
<stop offset="1" stop-color="#231F20"/>
</linearGradient>
<clipPath id="clip0_1_8">
<rect width="300" height="80" fill="white"/>
</clipPath>
</defs>
</svg>
